<?xml version="1.0" standalone="no"?>
<!DOCTYPE svg PUBLIC "-//W3C//DTD SVG 20010904//EN"
 "http://www.w3.org/TR/2001/REC-SVG-20010904/DTD/svg10.dtd">
<svg version="1.0" xmlns="http://www.w3.org/2000/svg"
 width="528.000000pt" height="528.000000pt" viewBox="0 0 528.000000 528.000000"
 preserveAspectRatio="xMidYMid meet">
<metadata>
Created by potrace 1.11, written by Peter Selinger 2001-2013
</metadata>
<g transform="translate(0.000000,528.000000) scale(0.100000,-0.100000)"
fill="#000000" stroke="none">
<path d="M266 5193 c-37 -11 -66 -31 -111 -76 -106 -106 -95 169 -93 -2497 l3
-2335 23 -47 c30 -60 90 -120 150 -150 l47 -23 2344 -3 2344 -2 53 24 c71 33
138 103 163 172 21 55 21 56 21 2378 0 2650 10 2377 -95 2483 -103 103 160 93
-2484 92 -2037 0 -2322 -2 -2365 -16z m2654 -858 c68 -14 125 -27 128 -29 4
-4 -694 -3496 -700 -3502 -7 -6 -273 54 -272 62 0 5 158 793 350 1751 213
1063 353 1743 360 1743 6 0 67 -11 134 -25z m-1022 -517 l133 -133 -533 -528
-533 -527 528 -523 528 -522 -136 -135 -135 -135 -658 658 -657 657 660 660
c363 363 662 660 665 660 3 0 65 -60 138 -132z m2203 -520 c362 -358 659 -654
659 -658 0 -3 -300 -303 -666 -665 l-666 -658 -131 131 -132 132 530 530 530
530 -525 525 -525 525 130 130 c71 71 131 130 133 130 2 0 300 -293 663 -652z"/>
</g>
</svg>
